<svg width="17" height="15" viewBox="0 0 17 15" fill="none" xmlns="http://www.w3.org/2000/svg">
<path d="M7.71173 0.636819C7.95987 -0.126899 9.04033 -0.126898 9.28848 0.63682L10.5473 4.51112C10.6583 4.85267 10.9766 5.08391 11.3357 5.08391H15.4094C16.2124 5.08391 16.5463 6.11149 15.8966 6.58349L12.6009 8.97794C12.3104 9.18903 12.1888 9.56319 12.2998 9.90473L13.5586 13.779C13.8068 14.5428 12.9327 15.1778 12.283 14.7058L8.98735 12.3114C8.69681 12.1003 8.3034 12.1003 8.01286 12.3114L4.71718 14.7058C4.06752 15.1778 3.19342 14.5428 3.44156 13.779L4.7004 9.90473C4.81137 9.56319 4.6898 9.18903 4.39927 8.97794L1.10359 6.58349C0.45393 6.11149 0.78781 5.08391 1.59083 5.08391H5.66451C6.02364 5.08391 6.34191 4.85267 6.45289 4.51112L7.71173 0.636819Z" fill="#FFBA79"/>
</svg>
