<svg width="17" height="16" viewBox="0 0 17 16" fill="none" xmlns="http://www.w3.org/2000/svg">
<path d="M14.5446 6.83575L13.9187 9.5054C13.3822 11.811 12.322 12.7435 10.3294 12.5519C10.0101 12.5263 9.66517 12.4688 9.29474 12.3794L8.22177 12.124C5.55851 11.4917 4.73462 10.176 5.36052 7.50635L5.98642 4.83032C6.11416 4.28745 6.26744 3.81483 6.45904 3.42524C7.20628 1.87966 8.47724 1.46452 10.6104 1.96907L11.677 2.21815C14.353 2.84405 15.1705 4.1661 14.5446 6.83575Z" stroke="#54577A" stroke-width="0.958008" stroke-linecap="round" stroke-linejoin="round"/>
<path d="M10.3295 12.5519C9.93352 12.8202 9.43536 13.0437 8.82862 13.2417L7.81952 13.5738C5.28399 14.3913 3.94916 13.7079 3.12528 11.1724L2.30778 8.64963C1.49028 6.1141 2.16727 4.77289 4.7028 3.95539L5.7119 3.62328C5.97375 3.54025 6.22284 3.47 6.45914 3.42529C6.26754 3.81488 6.11426 4.2875 5.98653 4.83037L5.36063 7.50641C4.73473 10.1761 5.55862 11.4917 8.22188 12.124L9.29485 12.3795C9.66528 12.4689 10.0102 12.5264 10.3295 12.5519Z" stroke="#54577A" stroke-width="0.958008" stroke-linecap="round" stroke-linejoin="round"/>
<path d="M8.78369 5.61572L11.8812 6.40129" stroke="#54577A" stroke-width="0.958008" stroke-linecap="round" stroke-linejoin="round"/>
<path d="M8.15771 8.0874L10.0099 8.56002" stroke="#54577A" stroke-width="0.958008" stroke-linecap="round" stroke-linejoin="round"/>
</svg>
