<svg width="8" height="9" viewBox="0 0 8 9" fill="none" xmlns="http://www.w3.org/2000/svg">
<path d="M2.04156 4.04053C1.7002 4.04053 1.4209 4.31982 1.4209 4.66119C1.4209 5.00255 1.7002 5.28185 2.04156 5.28185C2.38292 5.28185 2.66222 5.00255 2.66222 4.66119C2.66222 4.31982 2.38292 4.04053 2.04156 4.04053Z" fill="#141522" stroke="#141522" stroke-width="0.372396"/>
<path d="M6.3858 4.04053C6.04443 4.04053 5.76514 4.31982 5.76514 4.66119C5.76514 5.00255 6.04443 5.28185 6.3858 5.28185C6.72716 5.28185 7.00646 5.00255 7.00646 4.66119C7.00646 4.31982 6.72716 4.04053 6.3858 4.04053Z" fill="#141522" stroke="#141522" stroke-width="0.372396"/>
<path d="M4.21392 4.04053C3.87256 4.04053 3.59326 4.31982 3.59326 4.66119C3.59326 5.00255 3.87256 5.28185 4.21392 5.28185C4.55528 5.28185 4.83458 5.00255 4.83458 4.66119C4.83458 4.31982 4.55528 4.04053 4.21392 4.04053Z" fill="#141522" stroke="#141522" stroke-width="0.372396"/>
</svg>
