<svg width="16" height="16" viewBox="0 0 16 16" fill="none" xmlns="http://www.w3.org/2000/svg">
<path d="M7.875 9.99023C8.93319 9.99023 9.79102 9.13241 9.79102 8.07422C9.79102 7.01603 8.93319 6.1582 7.875 6.1582C6.81681 6.1582 5.95898 7.01603 5.95898 8.07422C5.95898 9.13241 6.81681 9.99023 7.875 9.99023Z" stroke="#7676B2" stroke-width="0.958008" stroke-miterlimit="10" stroke-linecap="round" stroke-linejoin="round"/>
<path d="M1.48828 8.63629V7.51223C1.48828 6.84801 2.03115 6.29875 2.70176 6.29875C3.85775 6.29875 4.33037 5.48125 3.74918 4.47854C3.41707 3.90373 3.61506 3.15649 4.19625 2.82438L5.30115 2.19209C5.8057 1.89192 6.45715 2.07074 6.75732 2.57529L6.82758 2.69664C7.40238 3.69936 8.34762 3.69936 8.92881 2.69664L8.99906 2.57529C9.29924 2.07074 9.95068 1.89192 10.4552 2.19209L11.5601 2.82438C12.1413 3.15649 12.3393 3.90373 12.0072 4.47854C11.426 5.48125 11.8986 6.29875 13.0546 6.29875C13.7188 6.29875 14.2681 6.84162 14.2681 7.51223V8.63629C14.2681 9.30051 13.7252 9.84977 13.0546 9.84977C11.8986 9.84977 11.426 10.6673 12.0072 11.67C12.3393 12.2512 12.1413 12.992 11.5601 13.3241L10.4552 13.9564C9.95068 14.2566 9.29924 14.0778 8.99906 13.5732L8.92881 13.4519C8.354 12.4492 7.40877 12.4492 6.82758 13.4519L6.75732 13.5732C6.45715 14.0778 5.8057 14.2566 5.30115 13.9564L4.19625 13.3241C3.61506 12.992 3.41707 12.2448 3.74918 11.67C4.33037 10.6673 3.85775 9.84977 2.70176 9.84977C2.03115 9.84977 1.48828 9.30051 1.48828 8.63629Z" stroke="#7676B2" stroke-width="0.958008" stroke-miterlimit="10" stroke-linecap="round" stroke-linejoin="round"/>
</svg>
