<svg width="16" height="16" viewBox="0 0 16 16" fill="none" xmlns="http://www.w3.org/2000/svg">
<path d="M13.674 6.03061V10.3991C13.674 11.1144 13.2908 11.7787 12.6713 12.1427L8.87758 14.3333C8.25807 14.691 7.49166 14.691 6.86576 14.3333L3.07205 12.1427C2.45254 11.785 2.06934 11.1208 2.06934 10.3991V6.03061C2.06934 5.3153 2.45254 4.65105 3.07205 4.28701L6.86576 2.09637C7.48527 1.73871 8.25168 1.73871 8.87758 2.09637L12.6713 4.28701C13.2908 4.65105 13.674 5.30891 13.674 6.03061Z" stroke="#7676B2" stroke-width="0.958008" stroke-linecap="round" stroke-linejoin="round"/>
<path d="M7.87482 7.57629C8.69668 7.57629 9.36293 6.91003 9.36293 6.08818C9.36293 5.26632 8.69668 4.6001 7.87482 4.6001C7.05297 4.6001 6.38672 5.26632 6.38672 6.08818C6.38672 6.91003 7.05297 7.57629 7.87482 7.57629Z" stroke="#7676B2" stroke-width="0.958008" stroke-linecap="round" stroke-linejoin="round"/>
<path d="M10.4297 11.1909C10.4297 10.0413 9.28646 9.10889 7.875 9.10889C6.46354 9.10889 5.32031 10.0413 5.32031 11.1909" stroke="#7676B2" stroke-width="0.958008" stroke-linecap="round" stroke-linejoin="round"/>
</svg>
