<svg width="16" height="16" viewBox="0 0 16 16" fill="none" xmlns="http://www.w3.org/2000/svg">
<path d="M14.2617 10.8123V3.10348C14.2617 2.33707 13.6358 1.76866 12.8758 1.83252H12.8375C11.4963 1.94749 9.45891 2.63086 8.32207 3.34618L8.2135 3.41643C8.02828 3.53139 7.72172 3.53139 7.5365 3.41643L7.37684 3.32063C6.24 2.6117 4.20902 1.93471 2.86781 1.82614C2.10779 1.76227 1.48828 2.33707 1.48828 3.09709V10.8123C1.48828 11.4254 1.98645 12.0002 2.59957 12.0768L2.78479 12.1024C4.1707 12.2876 6.31025 12.9901 7.5365 13.6607L7.56205 13.6735C7.73449 13.7693 8.00912 13.7693 8.17518 13.6735C9.40143 12.9965 11.5474 12.2876 12.9397 12.1024L13.1504 12.0768C13.7636 12.0002 14.2617 11.4254 14.2617 10.8123Z" stroke="#7676B2" stroke-width="0.958008" stroke-linecap="round" stroke-linejoin="round"/>
<path d="M7.875 3.62744V13.2075" stroke="#7676B2" stroke-width="0.958008" stroke-linecap="round" stroke-linejoin="round"/>
<path d="M5.16064 5.54346H3.72363" stroke="#7676B2" stroke-width="0.958008" stroke-linecap="round" stroke-linejoin="round"/>
<path d="M5.63965 7.45947H3.72363" stroke="#7676B2" stroke-width="0.958008" stroke-linecap="round" stroke-linejoin="round"/>
</svg>
