<svg width="21" height="21" viewBox="0 0 21 21" fill="none" xmlns="http://www.w3.org/2000/svg">
<path d="M18.8493 8.86481L18.037 12.3298C17.3406 15.3223 15.9646 16.5326 13.3783 16.2839C12.9638 16.2507 12.5162 16.1761 12.0354 16.0601L10.6427 15.7285C7.18603 14.9078 6.11669 13.2002 6.92906 9.73521L7.74143 6.26192C7.90722 5.55731 8.10616 4.94389 8.35485 4.43824C9.32471 2.43218 10.9743 1.89337 13.743 2.54824L15.1273 2.87152C18.6006 3.68389 19.6617 5.39981 18.8493 8.86481Z" stroke="#7676B2" stroke-width="1.24342" stroke-linecap="round" stroke-linejoin="round"/>
<path d="M13.3787 16.2836C12.8647 16.6318 12.2182 16.9219 11.4307 17.1789L10.1209 17.61C6.83 18.671 5.0975 17.784 4.02816 14.4931L2.96711 11.2188C1.90605 7.92786 2.78474 6.18707 6.07566 5.12601L7.38539 4.69496C7.72526 4.5872 8.04855 4.49601 8.35526 4.43799C8.10658 4.94365 7.90763 5.55707 7.74184 6.26167L6.92947 9.73496C6.11711 13.2 7.18645 14.9076 10.6432 15.7283L12.0358 16.0598C12.5166 16.1759 12.9642 16.2505 13.3787 16.2836Z" stroke="#7676B2" stroke-width="1.24342" stroke-linecap="round" stroke-linejoin="round"/>
<path d="M11.3726 7.28125L15.393 8.30086" stroke="#7676B2" stroke-width="1.24342" stroke-linecap="round" stroke-linejoin="round"/>
<path d="M10.5601 10.4893L12.964 11.1027" stroke="#7676B2" stroke-width="1.24342" stroke-linecap="round" stroke-linejoin="round"/>
</svg>
